HIERARCHY
ROOT Hips
{
    OFFSET   0.000000   0.000000   0.000000
    CHANNELS 6 Xposition Yposition Zposition Zrotation Xrotation Yrotation
    JOINT Chest
    {
        OFFSET   0.000000   8.007240   0.000000
        CHANNELS 3 Zrotation Xrotation Yrotation
        JOINT Chest2
        {
            OFFSET   0.000000  22.077100   0.000000
            CHANNELS 3 Zrotation Xrotation Yrotation
            JOINT Neck
            {
                OFFSET   0.000000  23.254800   0.000000
                CHANNELS 3 Zrotation Xrotation Yrotation
                JOINT Head
                {
                    OFFSET   0.000000  14.370000   1.956600
                    CHANNELS 3 Zrotation Xrotation Yrotation
                    End Site
                    {
                        OFFSET   0.000000  19.566000   0.000000
                    }
                }
            }
            JOINT LeftCollar
            {
                OFFSET   3.911900  19.017000  -0.467064
                CHANNELS 3 Zrotation Xrotation Yrotation
                JOINT LeftShoulder
                {
                    OFFSET  10.383700   0.000000   0.000000
                    CHANNELS 3 Zrotation Xrotation Yrotation
                    JOINT LeftElbow
                    {
                        OFFSET  26.662100   0.001476   0.000517
                        CHANNELS 3 Zrotation Xrotation Yrotation
                        JOINT LeftWrist
                        {
                            OFFSET  28.869000  -0.000025  -0.000106
                            CHANNELS 3 Zrotation Xrotation Yrotation
                            JOINT LeftFinger0
                            {
                                OFFSET   2.044660  -2.323460   3.252850
                                CHANNELS 3 Zrotation Xrotation Yrotation
                                JOINT LeftFinger01
                                {
                                    OFFSET   3.088130   0.000000   0.000000
                                    CHANNELS 3 Zrotation Xrotation Yrotation
                                    JOINT LeftFinger02
                                    {
                                        OFFSET   2.639460   0.000000   0.000000
                                        CHANNELS 3 Zrotation Xrotation Yrotation
                                        End Site
                                        {
                                            OFFSET   2.582190   0.000000   0.000000
                                        }
                                    }
                                }
                            }
                            JOINT LeftFinger1
                            {
                                OFFSET   8.364480   0.000000   3.252850
                                CHANNELS 3 Zrotation Xrotation Yrotation
                                JOINT LeftFinger11
                                {
                                    OFFSET   4.646930   0.000000   0.000000
                                    CHANNELS 3 Zrotation Xrotation Yrotation
                                    JOINT LeftFinger12
                                    {
                                        OFFSET   2.323460   0.000000   0.000000
                                        CHANNELS 3 Zrotation Xrotation Yrotation
                                        End Site
                                        {
                                            OFFSET   2.273050   0.000000   0.000000
                                        }
                                    }
                                }
                            }
                            JOINT LeftFinger2
                            {
                                OFFSET   8.364490   0.000015   1.078090
                                CHANNELS 3 Zrotation Xrotation Yrotation
                                JOINT LeftFinger21
                                {
                                    OFFSET   5.111620   0.000000   0.000000
                                    CHANNELS 3 Zrotation Xrotation Yrotation
                                    JOINT LeftFinger22
                                    {
                                        OFFSET   2.788160   0.000016   0.000000
                                        CHANNELS 3 Zrotation Xrotation Yrotation
                                        End Site
                                        {
                                            OFFSET   2.727660   0.000000   0.000000
                                        }
                                    }
                                }
                            }
                            JOINT LeftFinger3
                            {
                                OFFSET   7.899780   0.000017  -1.078090
                                CHANNELS 3 Zrotation Xrotation Yrotation
                                JOINT LeftFinger31
                                {
                                    OFFSET   4.646930   0.000000   0.000000
                                    CHANNELS 3 Zrotation Xrotation Yrotation
                                    JOINT LeftFinger32
                                    {
                                        OFFSET   2.323470   0.000000   0.000000
                                        CHANNELS 3 Zrotation Xrotation Yrotation
                                        End Site
                                        {
                                            OFFSET   2.273050   0.000000   0.000000
                                        }
                                    }
                                }
                            }
                            JOINT LeftFinger4
                            {
                                OFFSET   7.435090   0.000000  -3.252850
                                CHANNELS 3 Zrotation Xrotation Yrotation
                                JOINT LeftFinger41
                                {
                                    OFFSET   3.717550   0.000000   0.000000
                                    CHANNELS 3 Zrotation Xrotation Yrotation
                                    JOINT LeftFinger42
                                    {
                                        OFFSET   1.858770   0.000000   0.000000
                                        CHANNELS 3 Zrotation Xrotation Yrotation
                                        End Site
                                        {
                                            OFFSET   1.818440   0.000000   0.000000
                                        }
                                    }
                                }
                            }
                        }
                    }
                }
            }
            JOINT RightCollar
            {
                OFFSET  -3.911900  19.017000  -0.467063
                CHANNELS 3 Zrotation Xrotation Yrotation
                JOINT RightShoulder
                {
                    OFFSET -10.383700   0.000019   0.000000
                    CHANNELS 3 Zrotation Xrotation Yrotation
                    JOINT RightElbow
                    {
                        OFFSET -26.662100   0.001175   0.000102
                        CHANNELS 3 Zrotation Xrotation Yrotation
                        JOINT RightWrist
                        {
                            OFFSET -28.869000   0.000016  -0.000079
                            CHANNELS 3 Zrotation Xrotation Yrotation
                            JOINT RightFinger0
                            {
                                OFFSET  -2.044660  -2.323490   3.252850
                                CHANNELS 3 Zrotation Xrotation Yrotation
                                JOINT RightFinger01
                                {
                                    OFFSET  -3.088140   0.000000   0.000000
                                    CHANNELS 3 Zrotation Xrotation Yrotation
                                    JOINT RightFinger02
                                    {
                                        OFFSET  -2.639460   0.000000   0.000000
                                        CHANNELS 3 Zrotation Xrotation Yrotation
                                        End Site
                                        {
                                            OFFSET  -2.582190   0.000000   0.000000
                                        }
                                    }
                                }
                            }
                            JOINT RightFinger1
                            {
                                OFFSET  -8.364480   0.000000   3.252850
                                CHANNELS 3 Zrotation Xrotation Yrotation
                                JOINT RightFinger11
                                {
                                    OFFSET  -4.646930   0.000000   0.000000
                                    CHANNELS 3 Zrotation Xrotation Yrotation
                                    JOINT RightFinger12
                                    {
                                        OFFSET  -2.323470   0.000000   0.000000
                                        CHANNELS 3 Zrotation Xrotation Yrotation
                                        End Site
                                        {
                                            OFFSET  -2.273050   0.000000   0.000000
                                        }
                                    }
                                }
                            }
                            JOINT RightFinger2
                            {
                                OFFSET  -8.364480   0.000000   1.078090
                                CHANNELS 3 Zrotation Xrotation Yrotation
                                JOINT RightFinger21
                                {
                                    OFFSET  -5.111620   0.000000   0.000000
                                    CHANNELS 3 Zrotation Xrotation Yrotation
                                    JOINT RightFinger22
                                    {
                                        OFFSET  -2.788160   0.000000   0.000000
                                        CHANNELS 3 Zrotation Xrotation Yrotation
                                        End Site
                                        {
                                            OFFSET  -2.727660   0.000000   0.000000
                                        }
                                    }
                                }
                            }
                            JOINT RightFinger3
                            {
                                OFFSET  -7.899780   0.000000  -1.078090
                                CHANNELS 3 Zrotation Xrotation Yrotation
                                JOINT RightFinger31
                                {
                                    OFFSET  -4.646930   0.000000   0.000000
                                    CHANNELS 3 Zrotation Xrotation Yrotation
                                    JOINT RightFinger32
                                    {
                                        OFFSET  -2.323470   0.000000   0.000000
                                        CHANNELS 3 Zrotation Xrotation Yrotation
                                        End Site
                                        {
                                            OFFSET  -2.273050   0.000000   0.000000
                                        }
                                    }
                                }
                            }
                            JOINT RightFinger4
                            {
                                OFFSET  -7.435090   0.000000  -3.252850
                                CHANNELS 3 Zrotation Xrotation Yrotation
                                JOINT RightFinger41
                                {
                                    OFFSET  -3.717550   0.000000   0.000000
                                    CHANNELS 3 Zrotation Xrotation Yrotation
                                    JOINT RightFinger42
                                    {
                                        OFFSET  -1.858770   0.000000   0.000000
                                        CHANNELS 3 Zrotation Xrotation Yrotation
                                        End Site
                                        {
                                            OFFSET  -1.818440   0.000000   0.000000
                                        }
                                    }
                                }
                            }
                        }
                    }
                }
            }
        }
    }
    JOINT LeftHip
    {
        OFFSET   9.783040   0.000000   0.000000
        CHANNELS 3 Zrotation Xrotation Yrotation
        JOINT LeftKnee
        {
            OFFSET   0.000032 -41.789100  -0.002222
            CHANNELS 3 Zrotation Xrotation Yrotation
            JOINT LeftAnkle
            {
                OFFSET   0.000087 -41.133200  -0.000135
                CHANNELS 3 Zrotation Xrotation Yrotation
                JOINT LeftToe
                {
                    OFFSET   0.000000  -6.358960  14.674500
                    CHANNELS 3 Zrotation Xrotation Yrotation
                    End Site
                    {
                        OFFSET   0.000000   0.000000   3.913200
                    }
                }
            }
        }
    }
    JOINT RightHip
    {
        OFFSET  -9.783040   0.000000   0.000000
        CHANNELS 3 Zrotation Xrotation Yrotation
        JOINT RightKnee
        {
            OFFSET   0.000047 -41.789100  -0.000896
            CHANNELS 3 Zrotation Xrotation Yrotation
            JOINT RightAnkle
            {
                OFFSET  -0.000117 -41.133300  -0.000248
                CHANNELS 3 Zrotation Xrotation Yrotation
                JOINT RightToe
                {
                    OFFSET   0.000000  -6.358970  14.674500
                    CHANNELS 3 Zrotation Xrotation Yrotation
                    End Site
                    {
                        OFFSET   0.000000   0.000000   3.913200
                    }
                }
            }
        }
    }
}
MOTION
Frames: 4
Frame Time:   0.016667
 -6.883730  89.141100   2.625140  -4.954700 -10.450800  -7.422090   3.813740   6.300050  -5.844760   8.328120  12.160200 -12.205000   5.479800   3.288310  -0.311431   9.082650   6.485770  14.175000  -5.114450   5.384690   2.198450 -72.396400  26.353000 -15.282500  -4.673230  -5.047810 -13.175300   9.766960  -5.108190  10.790600  41.170100  30.240200 -63.018900 -25.279300   0.007968   0.008706  -7.639610   0.004589   0.000778 -36.672500   7.247410  -9.615970 -30.503900   0.004507  -0.000765 -21.352800   0.002154   0.000211 -29.553100   2.659740  -4.679290 -44.492200  -0.002023   0.000154 -29.631800  -0.001223  -0.001700 -30.570900  -0.754557   1.276550 -45.868600  -0.006187   0.002309 -30.548500  -0.003835   0.000000 -41.777200  -1.611750   1.802790 -62.703900  -0.010804   0.003538 -41.760900  -0.003298  -0.002202   3.488400   2.949410  15.783300  38.453900  -1.994770  72.537100  -5.503340 -31.720100 122.786000  -8.048200 -19.657800  22.478100 -37.772800  36.314000  79.097100  34.723700   0.019235  -0.013151  12.361800   0.012824   0.014444  61.678700   9.059710   5.037410  50.953100  -0.313520  -0.024889  38.352300  -0.171733   0.143908  50.030400   4.118460   3.431510  57.314400  -0.206144   0.014417  41.417900  -0.131939   0.128151  70.425900  -3.140440  -1.113790  69.983200  -0.216373   0.103742  52.579700  -0.016902   0.167397  86.086200 -10.016900  -0.709975 110.000000   0.000000   0.000000  80.621500   0.000000   0.002882   8.058930  18.103400   4.512870   1.169160   0.301109  21.818600  -6.446370  -3.821760   1.390550  -0.000000   0.000000  -0.000000   4.481620  10.099800  -4.033140   2.207690   4.660240  -5.678720  -4.732670  -3.500460   0.023120   0.000000   0.000000   0.000000
 -6.867330  89.146800   2.619360  -4.925470 -10.419100  -7.341260   3.794750   6.295980  -5.816840   8.286610  12.157000 -12.146500   5.508460   3.267930  -0.311536   9.129390   6.443660  14.185100  -5.126250   5.352800   2.168240 -72.395500  26.318500 -15.270200  -4.685770  -4.988140 -13.367900   9.802180  -5.143800  10.724700  41.163500  30.173200 -63.058900 -25.214400   0.013730   0.015470  -7.607150   0.007959   0.000779 -36.687500   7.312260  -9.694600 -30.525600   0.004638  -0.000782 -21.368000   0.003679   0.000281 -29.583200   2.707210  -4.756270 -44.543800  -0.002011   0.000110 -29.666200  -0.001207  -0.001785 -30.618700  -0.718061   1.212410 -45.939100  -0.006196   0.002287 -30.595500  -0.003781   0.000035 -41.855500  -1.636170   1.824970 -62.822300  -0.010959   0.003607 -41.839800  -0.003247  -0.003592   3.471300   2.930640  15.749000  38.721000  -1.796300  72.342600  -5.429500 -31.778800 122.661000  -2.714080 -20.908500  23.426300 -37.589800  35.546100  78.700500  34.205800   0.026817  -0.017386  12.102800   0.012434   0.019286  72.681700   7.201630   2.316790  58.750900  -0.298036   0.101534  44.211600  -0.106562   0.206054  58.978100   2.786340   1.780940  61.595000  -0.259303   0.060274  45.656900  -0.109705   0.181528  78.270600  -4.685360  -0.964482  77.565700  -0.171586   0.196678  58.259600   0.077196   0.164466  88.653300 -10.009000  -0.247662 110.000000   0.000000   0.000000  80.310700   0.000000   0.002950   8.038400  18.055000   4.513070   1.170680   0.295821  21.791300  -6.439030  -3.809430   1.352690  -0.000000   0.000000   0.000000   4.451870  10.075400  -4.066010   2.225060   4.643100  -5.716800  -4.727660  -3.499230   0.018123  -0.000000   0.000000   0.000000
 -6.847680  89.153300   2.613570  -4.896730 -10.385900  -7.251210   3.774010   6.293960  -5.786850   8.241420  12.156900 -12.083700   5.535290   3.240140  -0.311575   9.172370   6.386990  14.224800  -5.139860   5.312310   2.131950 -72.382800  26.291700 -15.254000  -4.700260  -4.922140 -13.562900   9.835650  -5.169160  10.631300  41.139700  30.090200 -63.089000 -25.124500   0.018916   0.021538  -7.562230   0.010722   0.000779 -36.712900   7.386040  -9.780770 -30.555500   0.004769  -0.000797 -21.388900   0.006153   0.000350 -29.629900   2.756690  -4.833270 -44.619200  -0.002000   0.000067 -29.716400  -0.001187  -0.001877 -30.688500  -0.681562   1.148280 -46.042900  -0.006203   0.002261 -30.664600  -0.003722   0.000067 -41.971200  -1.672290   1.857790 -62.997500  -0.011200   0.003675 -41.956400  -0.003191  -0.005134   3.447550   2.909340  15.705700  39.155800  -1.616950  72.102500  -5.462260 -31.722400 122.436000   3.548900 -22.581100  24.919500 -37.594800  35.124800  78.591900  33.303900   0.030416  -0.019762  11.651900   0.011474   0.021192  82.086900   5.575890   0.601266  65.772800  -0.247804   0.182584  49.329100  -0.010042   0.228364  67.009400   1.350640   0.531776  66.170000  -0.277341   0.100799  49.827500  -0.063556   0.205263  84.518300  -5.370380  -0.676755  84.561600  -0.099345   0.244828  63.420900   0.136072   0.143949  89.439800 -10.000300  -0.094326 110.000000   0.000000   0.000000  79.999900   0.000000   0.003014   8.020140  18.004200   4.512730   1.173710   0.286791  21.759700  -6.432210  -3.793380   1.309160  -0.000000   0.000000  -0.000000   4.420220  10.050200  -4.097070   2.244280   4.625760  -5.757240  -4.719230  -3.497920   0.008047   0.000000   0.000000   0.000000
 -6.826070  89.160800   2.607110  -4.870090 -10.351700  -7.155820   3.751620   6.294920  -5.752110   8.192950  12.164200 -12.011500   5.550530   3.202690  -0.310273   9.195910   6.312090  14.302300  -5.155850   5.258740   2.084090 -72.366700  26.279800 -15.238400  -4.706900  -4.857630 -13.744400   9.883960  -5.179780  10.565100  41.129800  30.053100 -63.056600 -25.089800   0.020815   0.023641  -7.544890   0.011518   0.000779 -36.726000   7.396490  -9.789540 -30.566800   0.004834  -0.000816 -21.396700   0.008496   0.000411 -29.659400   2.759070  -4.832850 -44.663000  -0.001996   0.000049 -29.745600  -0.001176  -0.001979 -30.730200  -0.683499   1.151180 -46.105500  -0.006211   0.002249 -30.706200  -0.003689   0.000106 -42.042900  -1.694650   1.878170 -63.106100  -0.011690   0.003747 -42.028600  -0.003132  -0.006805   3.431300   2.872970  15.636700  39.674600  -1.455160  71.825800  -5.614070 -31.447500 122.102000  10.179900 -24.365000  27.197100 -37.526500  34.823800  78.431000  32.486600   0.026489  -0.016789  11.243300   0.009835   0.018339  87.799900   4.977070   0.049938  71.067400  -0.136395   0.170935  53.291600   0.050189   0.167541  72.508300   0.227724  -0.033644  71.584800  -0.184046   0.120020  53.899000   0.009872   0.156880  88.307000  -5.179490  -0.279325  90.166600  -0.040611   0.192433  67.609500   0.116521   0.084495  89.212200 -10.000100  -0.135188 110.000000   0.000000   0.000000  79.999900  -0.000046   0.003074   8.004590  17.952000   4.511340   1.177970   0.277210  21.723800  -6.426660  -3.771590   1.263280  -0.000000   0.000000   0.000000   4.386680  10.022700  -4.120430   2.267490   4.610110  -5.808120  -4.712900  -3.497280  -0.007272   0.000000   0.000000   0.000000
